<?xml version="1.0" encoding="UTF-8" standalone="no"?>
<!-- Created with Inkscape (http://www.inkscape.org/) -->

<svg
   viewBox="0 0 20 20"
   class="_30bZQzX8IR92H3gw3vlaLF "
   version="1.1"
   id="svg4"
   sodipodi:docname="subr.svg"
   inkscape:version="1.1.1 (3bf5ae0d25, 2021-09-20)"
   xmlns:inkscape="http://www.inkscape.org/namespaces/inkscape"
   xmlns:sodipodi="http://sodipodi.sourceforge.net/DTD/sodipodi-0.dtd"
   xmlns="http://www.w3.org/2000/svg"
   xmlns:svg="http://www.w3.org/2000/svg">
  <defs
     id="defs8" />
  <sodipodi:namedview
     id="namedview6"
     pagecolor="#ffffff"
     bordercolor="#666666"
     borderopacity="1.0"
     inkscape:pageshadow="2"
     inkscape:pageopacity="0.0"
     inkscape:pagecheckerboard="0"
     showgrid="false"
     inkscape:zoom="38.5"
     inkscape:cx="9.987013"
     inkscape:cy="10"
     inkscape:window-width="1920"
     inkscape:window-height="974"
     inkscape:window-x="-11"
     inkscape:window-y="-11"
     inkscape:window-maximized="1"
     inkscape:current-layer="svg4" />
  <path
     d="M16.5,2.924,11.264,15.551H9.91L15.461,2.139h.074a9.721,9.721,0,1,0,.967.785ZM8.475,8.435a1.635,1.635,0,0,0-.233.868v4.2H6.629V6.2H8.174v.93h.041a2.927,2.927,0,0,1,1.008-.745,3.384,3.384,0,0,1,1.453-.294,3.244,3.244,0,0,1,.7.068,1.931,1.931,0,0,1,.458.151l-.656,1.558a2.174,2.174,0,0,0-1.067-.246,2.159,2.159,0,0,0-.981.215A1.59,1.59,0,0,0,8.475,8.435Z"
     id="path2"
     style="fill:#0079d3;fill-opacity:1" />
</svg>
